<svg xmlns="http://www.w3.org/2000/svg" width="444" height="444" viewBox="0 0 444 444">
<g>
<path d="M 371.89 352.98 C349.24,358.40 327.21,351.14 311.57,333.09 C295.85,314.93 292.68,290.21 303.23,268.05 C310.80,252.14 327.07,239.26 344.36,235.47 C354.77,233.19 369.86,233.87 378.86,237.03 C395.55,242.88 410.06,257.54 416.10,274.63 C419.04,282.97 419.79,299.37 417.62,308.00 C411.93,330.60 394.75,347.50 371.89,352.98 ZM 111.41 353.50 C86.69,358.74 61.14,347.89 47.32,326.29 C39.56,314.15 36.59,299.20 38.92,283.99 C41.65,266.22 55.61,247.78 72.22,240.03 C82.92,235.04 90.53,233.60 102.76,234.25 C109.94,234.63 114.46,235.48 119.97,237.51 C129.52,241.02 133.34,243.47 142.05,251.69 C147.85,257.15 149.93,260.02 153.48,267.43 C158.52,277.93 160.00,284.12 160.00,294.65 C160.00,307.47 154.84,322.08 146.78,332.13 C138.83,342.04 124.42,350.75 111.41,353.50 ZM 246.02 201.94 C237.42,204.31 224.56,204.57 216.22,202.55 C200.22,198.68 183.78,185.57 176.65,171.00 C165.00,147.21 169.24,121.64 187.94,102.94 C200.73,90.15 216.32,84.19 233.92,85.36 C238.55,85.67 242.60,86.28 242.92,86.71 C243.24,87.15 244.85,87.60 246.49,87.72 C248.14,87.84 249.64,88.41 249.83,88.98 C250.02,89.55 250.58,89.76 251.09,89.45 C251.59,89.14 252.00,89.39 252.00,90.00 C252.00,90.61 252.40,90.87 252.89,90.57 C254.37,89.65 261.16,92.93 260.39,94.18 C259.96,94.88 260.14,95.03 260.86,94.58 C262.95,93.29 274.61,103.63 279.78,111.36 C286.99,122.14 289.50,130.83 289.50,145.00 C289.50,154.46 289.08,157.70 287.16,163.27 C280.84,181.59 264.62,196.83 246.02,201.94 ZM 349.50 341.98 C368.03,345.70 390.07,335.92 399.86,319.63 C408.92,304.55 409.83,289.03 402.54,273.50 C394.41,256.14 378.18,246.00 358.56,246.00 C336.19,246.00 317.32,259.97 310.83,281.32 C309.15,286.88 308.83,289.93 309.23,296.93 C309.66,304.47 310.26,306.74 313.78,314.06 C316.01,318.70 319.33,324.13 321.16,326.12 C328.58,334.17 338.64,339.80 349.50,341.98 ZM 87.63 341.41 C119.15,349.04 149.80,323.42 147.76,291.15 C147.17,281.69 144.43,273.86 139.02,266.15 C129.85,253.07 116.00,246.02 99.43,246.01 C55.65,245.97 33.52,297.35 64.12,327.96 C70.60,334.44 79.23,339.38 87.63,341.41 ZM 215.00 189.66 C236.19,197.16 262.33,186.84 272.50,166.96 C276.79,158.58 278.26,151.51 277.82,141.47 C277.46,133.18 277.02,131.42 273.53,124.36 C263.22,103.48 240.57,92.79 218.69,98.49 C193.36,105.09 177.53,130.50 183.42,155.13 C185.69,164.61 191.60,174.59 198.21,180.10 C205.16,185.88 206.52,186.65 215.00,189.66 ZM 373.86 323.61 C369.39,325.91 367.01,326.41 359.50,326.65 C349.55,326.97 347.42,326.51 340.64,322.53 C326.65,314.33 320.36,296.80 326.01,281.71 C329.24,273.07 338.14,263.97 343.89,263.41 C345.33,263.27 348.98,262.63 352.00,261.99 C363.82,259.49 366.45,259.59 373.25,262.81 C380.70,266.33 386.18,271.97 389.76,279.80 C393.45,287.85 393.42,299.27 389.69,307.08 C386.26,314.24 380.62,320.14 373.86,323.61 ZM 111.71 324.84 C105.04,327.33 93.71,327.70 87.88,325.62 C66.04,317.81 57.91,292.66 71.14,273.83 C73.52,270.45 88.06,262.00 91.50,262.00 C92.93,262.00 95.31,261.40 96.80,260.66 C106.65,255.76 125.93,266.87 130.87,280.29 C133.51,287.47 133.72,298.53 131.33,305.57 C128.94,312.61 119.42,321.96 111.71,324.84 ZM 243.59 174.59 C230.02,180.80 214.83,177.32 204.16,165.55 C199.19,160.05 196.73,153.65 196.21,144.82 C195.79,137.85 196.03,136.54 198.73,130.82 C203.12,121.54 208.52,116.76 218.25,113.57 C221.41,112.53 224.00,111.30 224.00,110.84 C224.00,109.38 236.72,109.93 241.72,111.60 C249.99,114.37 256.36,119.99 260.41,128.10 C263.65,134.56 264.00,136.07 264.00,143.38 C264.00,150.23 263.55,152.44 261.15,157.50 C257.77,164.62 251.02,171.19 243.59,174.59 ZM 287.00 287.98 L 287.00 305.00 L 228.97 305.00 C181.19,305.00 170.85,304.76 170.42,303.65 C170.13,302.91 170.04,299.20 170.20,295.40 L 170.50 288.50 ZM 158.58 234.40 C154.78,239.68 151.18,243.98 150.58,243.95 C149.03,243.87 138.56,235.01 138.19,233.46 C137.90,232.24 170.11,188.32 172.42,186.79 C173.03,186.39 175.92,188.76 179.13,192.29 L 184.78 198.50 L 183.14 201.33 C182.24,202.89 180.04,205.82 178.25,207.83 C176.46,209.85 175.00,211.78 175.00,212.12 C175.00,212.46 172.86,215.46 170.25,218.77 C167.64,222.09 162.39,229.12 158.58,234.40 ZM 314.93 237.90 C311.57,240.71 308.50,243.00 308.10,243.00 C307.70,243.00 304.44,239.06 300.86,234.25 C290.08,219.77 280.96,207.24 277.92,202.74 L 275.06 198.50 L 281.02 192.52 C283.67,189.86 285.02,187.97 286.53,187.84 C288.71,187.65 291.22,191.18 298.52,201.42 C299.71,203.09 301.03,204.95 302.50,207.00 C309.01,216.07 315.84,225.59 317.68,228.15 L 321.03 232.80 Z" fill="rgb(244,221,31)"/>
</g>
</svg>