<svg xmlns="http://www.w3.org/2000/svg" width="470" height="470" viewBox="0 0 470 470">
<g>
<path d="M 379.00 183.19 C379.00,185.47 378.58,185.98 376.75,185.88 C370.22,185.54 368.61,184.55 365.43,178.88 C349.32,150.23 327.10,128.89 299.16,115.23 C292.92,112.19 287.56,109.03 287.25,108.22 C286.40,106.01 290.00,100.00 292.18,100.00 C295.02,100.00 313.49,109.48 322.70,115.67 C340.04,127.32 355.25,142.55 367.43,160.46 C375.37,172.14 379.00,179.28 379.00,183.19 ZM 101.60 183.63 C100.08,185.19 92.82,186.14 91.01,185.01 C89.75,184.23 90.11,182.89 93.35,176.29 C104.91,152.78 124.07,130.87 145.50,116.62 C154.09,110.92 172.45,101.00 174.42,101.00 C176.19,101.00 181.00,106.34 181.00,108.29 C181.00,109.40 178.23,111.37 172.96,114.02 C160.28,120.40 146.20,129.78 137.52,137.64 C133.13,141.62 129.43,144.77 129.30,144.64 C128.42,143.75 130.93,138.63 132.35,138.42 C134.91,138.04 137.06,135.96 136.76,134.15 C136.61,133.25 137.35,132.40 138.50,132.17 C139.60,131.94 142.59,130.01 145.14,127.88 C147.69,125.75 150.26,124.00 150.85,124.00 C152.51,124.00 158.00,118.26 158.00,116.52 C158.00,115.27 157.19,115.10 153.75,115.60 C149.53,116.22 145.16,118.65 139.59,123.48 C138.00,124.87 136.24,126.00 135.69,126.00 C134.22,126.00 111.19,149.81 110.48,152.08 C110.14,153.13 109.52,154.00 109.10,154.00 C107.11,154.00 92.52,180.41 93.57,182.11 C94.39,183.43 98.77,183.19 99.97,181.75 C100.55,181.06 101.95,179.26 103.08,177.75 C106.14,173.67 107.51,174.42 104.93,178.75 C103.70,180.81 102.20,183.01 101.60,183.63 ZM 321.38 320.61 C312.76,329.41 307.54,334.00 306.15,334.00 C303.37,334.00 301.61,330.96 299.59,322.66 C298.19,316.90 298.11,314.53 299.03,307.76 C300.48,297.16 303.40,289.58 308.27,283.71 C313.28,277.69 315.86,276.39 324.11,275.76 C328.76,275.40 332.04,274.48 335.19,272.63 C340.59,269.46 342.86,269.37 350.01,272.05 C361.39,276.31 372.65,275.76 384.78,270.35 C390.13,267.97 394.82,267.35 396.55,268.80 C397.07,269.23 399.30,270.19 401.50,270.93 C407.81,273.05 416.22,279.48 419.25,284.52 C421.39,288.06 421.97,290.24 421.88,294.29 L 421.76 299.50 L 420.96 294.72 C419.97,288.84 416.01,281.89 411.67,278.43 C407.54,275.13 395.71,269.89 392.18,269.79 C390.71,269.75 386.80,270.97 383.50,272.51 C375.34,276.31 362.62,277.42 351.66,275.30 C344.06,273.83 343.60,273.85 337.16,276.03 C333.09,277.41 327.68,278.36 323.23,278.47 C316.73,278.64 315.65,278.96 312.98,281.52 C311.34,283.09 310.00,284.89 310.00,285.52 C310.00,286.15 308.34,288.80 306.31,291.41 C302.55,296.24 301.68,299.30 300.34,312.38 C299.21,323.42 303.20,333.62 307.67,331.14 C308.68,330.58 314.23,325.30 320.00,319.42 C334.16,304.99 335.56,304.00 341.70,304.00 C348.86,304.00 356.00,305.11 356.00,306.22 C356.00,306.80 353.10,306.90 348.62,306.48 C336.57,305.35 336.09,305.60 321.38,320.61 ZM 166.95 332.56 C164.17,335.91 161.50,334.15 148.19,320.25 C140.96,312.69 135.03,306.36 135.02,306.18 C135.01,306.01 136.46,306.90 138.25,308.16 C141.54,310.48 144.83,313.72 155.25,324.94 C159.98,330.04 161.48,331.08 163.74,330.82 C166.92,330.45 167.78,327.65 168.67,314.82 C169.09,308.75 168.87,306.65 167.60,304.84 C166.72,303.58 166.00,301.49 166.00,300.18 C166.00,298.88 165.35,296.61 164.55,295.15 C163.76,293.69 162.37,290.83 161.46,288.80 C159.30,283.93 153.68,279.56 151.25,280.86 C149.97,281.55 148.85,281.29 147.13,279.91 C145.78,278.81 143.23,278.00 141.14,278.00 C139.14,278.00 134.65,276.79 131.16,275.32 C125.12,272.75 124.56,272.68 119.16,273.93 C106.06,276.95 94.24,276.26 85.50,271.96 C80.74,269.62 84.04,269.92 90.89,272.46 C97.84,275.03 111.00,274.84 119.74,272.04 L 126.98 269.73 L 135.59 272.86 C140.33,274.59 145.40,276.01 146.85,276.02 C158.97,276.12 171.02,294.53 170.99,312.90 C170.98,320.72 169.07,330.01 166.95,332.56 ZM 335.17 189.14 C333.41,190.71 331.59,192.00 331.12,192.00 C330.65,192.00 329.03,190.14 327.53,187.86 C326.02,185.59 321.67,180.66 317.85,176.92 C312.05,171.24 310.86,169.50 310.58,166.34 C309.74,157.02 312.87,157.81 325.47,170.06 C331.15,175.60 336.38,181.51 337.09,183.21 C338.29,186.12 338.19,186.44 335.17,189.14 ZM 249.70 125.00 C244.60,127.81 242.37,128.41 236.05,128.69 C226.81,129.09 220.40,126.86 213.59,120.87 C209.15,116.96 203.43,107.22 204.20,104.90 C204.40,104.30 205.59,106.10 206.86,108.89 C210.44,116.83 216.28,122.16 224.27,124.78 C234.39,128.10 238.77,127.66 249.68,122.23 C258.33,117.92 265.06,106.12 264.97,95.41 C264.90,87.26 259.41,77.00 255.12,77.00 C254.54,77.00 251.51,75.88 248.40,74.50 C243.62,72.38 241.28,72.01 233.13,72.04 C224.02,72.08 223.10,72.29 216.00,75.87 C206.28,80.77 204.43,84.18 203.99,98.00 C203.82,103.45 203.81,103.47 202.80,100.00 C200.90,93.48 205.55,80.18 211.19,76.02 C215.22,73.04 226.24,70.00 233.03,70.00 C236.07,70.00 241.02,70.71 244.03,71.58 C247.04,72.45 250.91,73.39 252.64,73.67 C259.11,74.74 267.00,87.51 267.00,96.91 C267.00,107.86 259.90,119.40 249.70,125.00 ZM 379.14 259.04 C366.71,262.88 355.06,260.06 346.00,251.00 C340.01,245.01 337.83,239.88 337.24,230.39 C336.77,222.75 336.95,221.71 339.81,215.59 C341.79,211.37 343.72,208.68 345.20,208.10 C346.46,207.61 350.42,205.96 353.99,204.44 C359.51,202.08 361.81,201.68 369.49,201.72 C384.00,201.80 388.32,202.70 391.82,206.34 C395.51,210.17 400.01,218.91 399.97,222.15 C399.95,223.62 399.27,222.56 398.14,219.32 C397.16,216.47 394.74,212.17 392.77,209.76 C389.45,205.72 388.62,205.28 381.84,204.00 C377.80,203.24 371.23,202.69 367.23,202.77 C359.43,202.92 356.67,204.00 349.33,209.74 C347.04,211.53 344.48,213.00 343.64,213.00 C341.63,213.00 340.80,214.49 339.74,219.96 C337.74,230.22 337.77,232.69 339.91,237.52 C341.06,240.13 342.00,242.81 342.00,243.50 C342.00,244.18 344.14,246.63 346.75,248.94 C353.21,254.64 353.72,255.00 355.24,255.00 C355.96,255.00 357.60,255.73 358.89,256.63 C360.55,257.80 363.40,258.26 368.86,258.26 C376.65,258.25 381.98,256.69 386.10,253.23 C391.67,248.55 396.00,243.74 396.03,242.21 C396.05,241.27 396.94,238.70 398.00,236.50 L 399.93 232.50 L 399.97 235.80 C400.01,240.46 397.65,244.62 391.14,251.29 C386.51,256.03 384.36,257.42 379.14,259.04 ZM 330.41 189.23 C331.92,190.26 332.11,190.21 334.17,188.35 C335.18,187.43 336.00,185.73 336.00,184.56 C336.00,180.49 314.36,159.30 312.31,161.36 C312.03,161.64 312.12,163.78 312.52,166.12 C313.11,169.58 314.56,171.74 320.35,177.73 C324.27,181.78 327.89,185.86 328.40,186.79 C328.91,187.73 329.82,188.83 330.41,189.23 ZM 346.00 146.71 C347.38,147.40 349.06,147.98 349.75,147.99 C351.52,148.01 351.31,144.33 349.50,143.64 C348.67,143.32 348.00,142.38 348.00,141.55 C348.00,139.25 338.86,130.34 335.75,129.61 C334.03,129.20 332.06,127.47 330.49,124.98 C329.11,122.79 327.29,121.00 326.45,121.00 C325.60,121.00 323.94,120.09 322.74,118.97 C321.54,117.85 319.87,117.07 319.04,117.23 C315.97,117.82 317.19,120.59 322.03,124.00 C324.76,125.93 327.25,128.29 327.56,129.25 C327.88,130.21 328.76,131.00 329.53,131.00 C330.30,131.00 331.41,131.90 332.00,133.00 C332.70,134.31 334.09,135.00 336.04,135.00 C337.85,135.00 339.00,135.52 339.00,136.35 C339.00,137.08 339.87,138.48 340.94,139.45 C342.01,140.42 343.03,142.16 343.19,143.33 C343.36,144.50 344.62,146.02 346.00,146.71 ZM 368.57 179.63 C371.66,182.54 377.00,184.29 377.00,182.39 C377.00,180.65 370.54,168.62 367.74,165.13 C365.96,162.92 363.69,159.96 362.70,158.55 C360.79,155.84 357.27,155.14 356.44,157.30 C355.85,158.85 361.65,170.15 363.63,171.30 C364.38,171.74 365.00,173.04 365.00,174.18 C365.00,175.33 366.61,177.78 368.57,179.63 ZM 296.74 168.50 C297.05,173.38 296.72,176.56 295.66,179.00 C294.17,182.43 294.15,182.34 294.71,174.77 C295.30,166.89 294.25,162.06 290.31,154.50 C288.22,150.50 279.70,142.56 275.16,140.39 C270.00,137.93 257.93,137.96 252.00,140.45 C248.62,141.87 244.64,142.40 236.00,142.56 L 224.50 142.77 L 235.00 142.08 C242.30,141.59 247.33,140.67 251.50,139.04 C260.72,135.44 266.03,135.30 274.06,138.45 C287.51,143.73 295.90,154.84 296.74,168.50 ZM 62.43 316.01 C55.87,317.10 50.17,318.00 49.77,318.00 C48.27,318.00 47.50,312.17 47.52,301.00 C47.55,289.50 47.55,289.50 51.16,283.90 C53.50,280.29 56.50,277.26 59.64,275.35 C65.32,271.89 70.85,269.52 71.56,270.23 C71.84,270.51 70.59,271.33 68.78,272.07 C66.98,272.81 64.99,273.88 64.37,274.46 C63.75,275.03 61.27,276.66 58.87,278.08 C56.47,279.50 54.00,281.75 53.39,283.08 C49.30,291.98 49.00,293.35 49.00,302.91 C49.00,315.53 49.15,315.68 60.26,314.04 C75.58,311.78 76.58,311.71 75.43,312.91 C74.85,313.53 69.00,314.92 62.43,316.01 ZM 131.97 234.63 C131.25,237.63 130.35,240.29 129.97,240.52 C128.43,241.47 128.30,239.65 129.61,235.29 C131.43,229.24 131.36,224.92 129.37,220.28 C123.35,206.27 115.09,198.83 105.69,198.95 C86.88,199.18 86.46,199.29 78.90,205.57 C74.05,209.59 72.46,212.05 69.88,219.50 C68.92,222.25 68.11,223.60 68.08,222.50 C67.99,219.38 72.78,209.85 76.31,206.16 C78.06,204.32 81.75,201.62 84.50,200.16 C89.01,197.76 90.53,197.50 100.00,197.52 C111.56,197.55 113.40,198.16 120.67,204.42 C125.00,208.15 131.40,219.62 132.63,225.83 C132.99,227.66 132.69,231.62 131.97,234.63 ZM 158.46 113.94 C159.33,115.34 167.50,113.72 173.75,110.90 C178.57,108.73 179.22,106.41 175.42,104.97 C172.49,103.86 166.58,106.05 165.59,108.62 C165.28,109.43 163.43,110.76 161.47,111.58 C159.52,112.39 158.16,113.46 158.46,113.94 ZM 93.00 310.65 C88.32,311.46 83.04,312.38 81.25,312.69 C79.27,313.04 78.00,312.85 78.00,312.20 C78.00,310.91 93.44,307.89 108.40,306.25 C115.16,305.51 113.62,307.60 106.75,308.49 C103.86,308.86 97.68,309.83 93.00,310.65 ZM 244.50 401.10 C238.34,402.47 237.19,402.55 226.75,402.23 C210.49,401.73 215.40,399.99 232.75,400.10 C244.52,400.18 247.49,400.43 244.50,401.10 ZM 290.68 109.18 C291.61,109.35 294.27,109.54 296.59,109.59 C299.65,109.66 300.68,109.33 300.32,108.40 C299.64,106.61 295.43,104.00 293.24,104.00 C289.60,104.00 287.37,108.54 290.68,109.18 ZM 248.47 353.05 C247.88,354.00 229.26,354.19 225.50,353.29 C220.13,351.99 223.30,351.53 235.57,351.80 C243.71,351.99 248.82,352.48 248.47,353.05 ZM 247.50 342.92 C242.23,344.40 217.00,343.76 217.00,342.15 C217.00,341.75 220.26,341.76 224.25,342.17 C228.24,342.58 235.77,342.73 241.00,342.50 C247.16,342.23 249.45,342.38 247.50,342.92 ZM 246.50 391.04 C239.26,391.94 227.50,391.92 220.00,391.00 C216.70,390.60 222.11,390.32 233.50,390.31 C246.46,390.30 250.59,390.53 246.50,391.04 ZM 214.95 350.66 L 217.50 351.99 L 214.00 351.89 C209.40,351.76 203.00,350.03 203.00,348.92 C203.00,347.73 211.78,349.00 214.95,350.66 ZM 352.50 153.00 C353.38,154.43 354.70,154.23 355.33,152.58 C355.63,151.80 355.24,150.92 354.47,150.63 C352.85,150.00 351.59,151.52 352.50,153.00 Z" fill="rgb(236,214,59)"/>
<path d="M 336.44 189.55 C334.27,191.41 332.00,192.94 331.40,192.96 C330.79,192.98 328.17,190.30 325.58,187.00 C322.99,183.70 318.40,178.87 315.37,176.26 C310.29,171.87 309.89,171.21 310.07,167.51 C310.18,165.30 309.81,162.38 309.27,161.00 C307.01,155.35 306.72,153.71 308.14,154.53 C317.59,159.96 331.79,173.26 337.83,182.34 L 340.38 186.18 ZM 335.17 189.14 C338.19,186.44 338.29,186.12 337.09,183.21 C336.38,181.51 331.15,175.60 325.47,170.06 C312.87,157.81 309.74,157.02 310.58,166.34 C310.86,169.50 312.05,171.24 317.85,176.92 C321.67,180.66 326.02,185.59 327.53,187.86 C329.03,190.14 330.65,192.00 331.12,192.00 C331.59,192.00 333.41,190.71 335.17,189.14 ZM 399.30 239.96 C399.78,238.57 399.98,237.21 399.97,235.80 L 399.93 232.50 L 398.00 236.50 C400.20,231.95 400.35,226.33 398.67,220.76 C399.47,222.85 399.95,223.37 399.97,222.15 C400.01,218.91 395.51,210.17 391.82,206.34 C388.32,202.70 384.00,201.80 369.49,201.72 C361.81,201.68 359.51,202.08 353.99,204.44 C350.42,205.96 346.46,207.61 345.20,208.10 C343.72,208.68 341.79,211.37 339.81,215.59 C336.95,221.71 336.77,222.75 337.24,230.39 C337.60,236.10 338.53,240.24 340.52,243.93 C339.84,242.84 339.21,241.72 338.63,240.55 C336.01,235.32 335.80,234.11 336.19,226.65 C336.53,220.05 337.17,217.46 339.49,213.20 C345.43,202.28 356.19,195.91 369.00,195.73 C382.26,195.54 392.26,201.69 398.15,213.65 C400.93,219.30 401.37,221.23 401.36,227.85 C401.35,232.60 400.76,236.42 399.30,239.96 ZM 266.77 93.99 C265.43,85.06 258.46,74.64 252.64,73.67 C250.91,73.39 247.04,72.45 244.03,71.58 C241.02,70.71 236.07,70.00 233.03,70.00 C226.24,70.00 215.22,73.04 211.19,76.02 C208.06,78.33 205.24,83.45 203.67,88.66 C203.87,87.55 204.00,86.53 204.00,85.87 C204.00,82.35 210.33,73.55 215.24,70.24 C222.09,65.61 225.86,64.50 234.50,64.54 C244.52,64.58 251.60,67.56 258.32,74.58 C263.59,80.08 266.33,86.97 266.77,93.99 ZM 395.48 268.25 C393.27,267.60 389.26,268.36 384.78,270.35 C372.65,275.76 361.39,276.31 350.01,272.05 C342.86,269.37 340.59,269.46 335.19,272.63 C332.04,274.48 328.76,275.40 324.11,275.76 C315.86,276.39 313.28,277.69 308.27,283.71 C303.40,289.58 300.48,297.16 299.03,307.76 C298.53,311.45 298.32,313.83 298.47,316.17 C297.37,307.07 298.73,298.47 302.56,290.07 C307.62,278.98 317.63,271.78 332.61,268.44 L 339.80 266.84 L 349.15 270.09 C361.98,274.53 371.14,274.54 382.53,270.11 C391.41,266.65 392.71,266.46 395.48,268.25 ZM 170.98 312.03 C170.64,293.96 158.78,276.12 146.85,276.02 C145.40,276.01 140.33,274.59 135.59,272.86 L 126.98 269.73 L 119.74 272.04 C113.07,274.18 103.83,274.80 96.74,273.83 C98.85,273.96 101.49,273.72 106.09,273.18 C111.99,272.49 118.55,270.97 122.56,269.37 L 129.23 266.70 L 136.86 268.35 C151.49,271.53 160.42,277.99 166.05,289.50 C169.38,296.30 170.86,303.03 170.98,312.03 ZM 132.43 224.96 C130.83,218.61 124.80,207.99 120.67,204.42 C113.40,198.16 111.56,197.55 100.00,197.52 C90.53,197.50 89.01,197.76 84.50,200.16 C81.75,201.62 78.06,204.32 76.31,206.16 C72.78,209.85 67.99,219.38 68.08,222.50 C68.11,223.39 68.64,222.67 69.35,220.90 C68.44,224.48 68.16,228.27 68.59,232.05 C69.03,235.97 68.90,238.00 68.21,238.00 C66.23,238.00 65.68,225.83 67.39,220.05 C72.06,204.34 83.45,195.65 99.50,195.55 C108.64,195.49 115.61,198.09 122.45,204.09 C127.66,208.66 131.43,217.08 132.43,224.96 ZM 184.50 185.95 C181.20,187.06 177.73,187.98 176.79,187.99 C172.34,188.02 170.98,165.35 174.90,156.50 C177.29,151.11 184.75,142.76 189.34,140.35 C194.14,137.83 193.48,139.66 188.23,143.43 C183.03,147.16 178.46,153.09 176.21,159.00 C174.62,163.19 174.47,179.46 175.98,183.44 C176.88,185.82 177.43,186.13 179.77,185.59 C181.27,185.25 184.30,184.73 186.50,184.45 C189.96,184.01 189.69,184.21 184.50,185.95 ZM 418.80 288.05 C419.84,290.27 420.60,292.57 420.96,294.72 L 421.76 299.50 L 421.88 294.29 C421.97,290.25 421.39,288.07 419.27,284.54 C419.28,284.56 419.29,284.58 419.30,284.60 C424.08,292.54 424.80,300.98 421.83,314.34 C420.92,318.46 420.46,319.09 418.76,318.65 C417.66,318.36 412.31,317.32 406.88,316.33 C396.60,314.46 393.07,312.78 402.25,314.13 C418.12,316.45 418.67,316.44 420.34,313.88 C423.21,309.47 422.24,296.23 418.80,288.05 ZM 247.49 390.95 C238.06,392.03 229.23,392.07 220.00,391.08 C216.05,390.66 219.43,390.28 232.00,389.75 C241.62,389.34 251.52,388.72 254.00,388.37 C257.22,387.93 258.21,388.06 257.49,388.84 C256.93,389.43 252.43,390.39 247.49,390.95 ZM 247.50 342.92 C249.45,342.38 247.16,342.23 241.00,342.50 C235.77,342.73 228.24,342.58 224.25,342.17 C223.17,342.06 222.15,341.98 221.23,341.93 C222.63,341.99 224.29,342.10 226.07,342.27 C234.90,343.10 244.03,342.16 258.88,338.90 C261.29,338.37 263.47,338.14 263.72,338.39 C264.71,339.38 260.03,340.89 251.24,342.40 C250.08,342.61 248.79,342.78 247.43,342.94 C247.45,342.93 247.48,342.93 247.50,342.92 ZM 246.50 391.04 C250.59,390.53 246.46,390.30 233.50,390.31 C222.11,390.32 216.70,390.60 220.00,391.00 C227.50,391.92 239.26,391.94 246.50,391.04 ZM 295.12 184.25 C294.36,186.86 293.46,188.96 293.12,188.91 C290.50,188.53 286.00,186.80 286.00,186.17 C286.00,185.75 287.52,185.58 289.38,185.80 C291.24,186.01 293.04,185.75 293.37,185.22 C293.70,184.68 294.27,180.37 294.63,175.65 C294.92,171.87 294.92,168.90 294.50,166.11 C294.92,168.75 294.96,171.50 294.71,174.77 C294.15,182.34 294.17,182.43 295.66,179.00 C295.85,178.57 296.01,178.12 296.15,177.64 C295.90,180.38 295.53,182.84 295.12,184.25 ZM 227.91 351.74 C222.23,351.82 221.51,352.33 225.50,353.29 C226.93,353.63 230.51,353.82 234.44,353.86 C227.78,353.92 220.71,353.76 218.00,353.33 C215.52,352.94 212.34,352.19 209.55,351.40 C211.05,351.67 212.61,351.85 214.00,351.89 L 217.50 351.99 L 215.57 350.98 C217.25,351.62 219.24,352.04 220.29,351.96 C222.18,351.80 224.90,351.74 227.91,351.74 ZM 244.50 401.10 C247.36,400.46 244.77,400.20 234.26,400.11 C235.53,400.11 236.86,400.11 238.25,400.12 C252.83,400.21 257.77,400.49 254.00,401.02 C249.72,401.62 244.04,402.02 238.42,402.20 C240.26,402.01 241.95,401.67 244.50,401.10 ZM 234.43 343.75 C225.36,343.94 217.08,343.39 217.00,342.16 C217.08,343.12 226.08,343.73 234.43,343.75 ZM 296.37 165.10 C295.71,160.98 294.34,157.13 292.34,153.66 C292.67,154.22 292.99,154.80 293.29,155.38 C295.39,159.41 296.12,161.26 296.37,165.10 ZM 379.14 259.04 C373.25,260.86 369.03,261.26 363.99,260.38 C368.81,261.09 373.91,260.65 379.14,259.04 ZM 375.21 257.82 C379.59,256.96 383.59,255.34 386.10,253.23 C383.21,255.66 379.72,257.15 375.21,257.82 ZM 71.98 214.11 C73.63,210.55 75.40,208.49 78.73,205.71 C75.96,208.04 73.68,210.91 71.98,214.11 ZM 301.09 327.98 C302.27,331.45 303.48,333.23 304.98,333.79 C303.28,333.56 302.21,331.59 301.09,327.98 ZM 389.83 270.18 C390.83,269.92 391.66,269.77 392.18,269.79 C392.91,269.81 393.97,270.04 395.25,270.43 C393.27,269.91 391.62,269.83 389.83,270.18 ZM 202.77 92.38 C202.39,94.49 202.27,96.50 202.46,98.23 C202.11,96.22 202.21,94.41 202.77,92.38 ZM 249.70 125.00 C254.68,122.26 258.92,118.11 261.96,113.30 C259.08,118.02 254.96,122.11 249.70,125.00 ZM 408.26 276.20 C409.64,276.98 410.82,277.75 411.67,278.43 C412.68,279.23 413.67,280.22 414.60,281.35 C412.90,279.42 410.88,277.78 408.26,276.20 ZM 391.21 251.29 C388.74,253.79 386.95,255.36 385.05,256.53 C386.94,255.37 388.69,253.80 391.14,251.29 C392.85,249.54 394.27,247.97 395.43,246.51 C394.24,248.05 392.84,249.63 391.21,251.29 ZM 230.02 402.32 C225.68,402.30 221.90,402.13 219.55,401.81 C221.18,401.98 223.55,402.13 226.75,402.23 C227.96,402.26 229.04,402.30 230.02,402.32 ZM 131.97 234.63 C132.30,233.27 132.53,231.72 132.66,230.26 C132.58,231.98 132.34,233.61 131.91,235.11 C131.71,235.83 131.51,236.48 131.33,237.05 C131.55,236.30 131.77,235.48 131.97,234.63 ZM 203.00 348.87 C203.00,348.86 203.00,348.85 203.00,348.84 C203.00,348.13 205.81,348.28 208.92,348.90 C205.94,348.37 203.14,348.24 203.00,348.87 ZM 321.38 320.61 C316.59,325.50 313.08,329.00 310.42,331.16 C313.02,328.92 316.70,325.39 321.38,320.61 ZM 217.00 400.99 C217.00,400.98 217.00,400.97 217.00,400.96 C217.00,400.68 218.89,400.46 222.29,400.31 C219.38,400.48 217.56,400.73 217.00,400.99 ZM 203.33 101.74 C203.66,102.72 203.79,102.62 203.87,101.16 L 203.79 103.50 ZM 413.08 277.81 C409.48,274.81 405.14,272.15 401.50,270.93 C399.67,270.32 397.82,269.55 396.95,269.06 C398.24,269.69 399.99,270.41 401.50,270.92 C405.17,272.16 409.49,274.81 413.08,277.81 ZM 358.89 256.63 C357.60,255.73 355.96,255.00 355.24,255.00 C355.96,255.00 357.47,255.64 358.59,256.42 C359.21,256.86 360.25,257.31 361.37,257.67 C360.32,257.42 359.52,257.08 358.89,256.63 ZM 170.99 313.39 C170.98,317.66 170.33,322.55 169.38,326.41 C170.33,322.51 170.97,317.50 170.99,312.98 C170.99,313.12 170.99,313.25 170.99,313.39 ZM 394.18 211.68 C393.84,211.20 393.48,210.73 393.11,210.26 C392.23,209.15 391.53,208.28 390.88,207.59 C391.45,208.18 392.05,208.88 392.77,209.76 C393.22,210.31 393.70,210.97 394.18,211.68 ZM 92.62 273.01 C92.01,272.85 91.43,272.66 90.89,272.46 C89.97,272.12 89.11,271.82 88.32,271.56 C89.24,271.85 90.27,272.20 91.40,272.60 C91.83,272.75 92.23,272.89 92.62,273.01 ZM 128.90 240.56 C128.87,240.53 128.83,240.50 128.80,240.46 C128.67,240.34 128.65,239.87 128.74,239.18 C128.68,239.85 128.73,240.31 128.90,240.56 ZM 83.32 270.41 C83.05,270.56 83.69,271.07 85.50,271.96 C83.64,271.04 82.99,270.54 83.32,270.41 ZM 248.50 353.00 C248.50,353.01 248.49,353.02 248.48,353.02 C248.50,352.95 248.43,352.88 248.27,352.81 C248.46,352.87 248.54,352.94 248.50,353.00 Z" fill="rgb(221,210,119)"/>
<path d="M 184.50 185.95 C189.69,184.21 189.96,184.01 186.50,184.45 C184.30,184.73 181.27,185.25 179.77,185.59 C177.43,186.13 176.88,185.82 175.98,183.44 C174.47,179.46 174.62,163.19 176.21,159.00 C178.46,153.09 183.03,147.16 188.23,143.43 C191.39,141.16 192.89,139.59 192.53,139.25 C194.25,138.82 196.89,138.07 198.93,137.42 C205.21,135.41 207.56,135.61 216.84,139.00 C222.46,141.05 228.11,142.11 233.70,142.16 L 224.50 142.77 L 236.00 142.56 C244.64,142.40 248.62,141.87 252.00,140.45 C257.93,137.96 270.00,137.93 275.16,140.39 C279.70,142.56 288.22,150.50 290.31,154.50 C292.61,158.92 293.92,162.41 294.50,166.11 C294.92,168.90 294.92,171.87 294.63,175.65 C294.27,180.37 293.70,184.68 293.37,185.22 C293.04,185.75 291.24,186.01 289.38,185.80 C287.59,185.59 286.11,185.74 286.01,186.13 C286.00,186.11 286.00,186.10 286.00,186.08 C286.00,185.61 284.54,184.97 282.75,184.66 C280.96,184.35 275.45,183.20 270.50,182.10 C257.94,179.31 238.34,177.64 226.50,178.36 C212.18,179.22 191.21,182.43 190.00,183.93 C189.33,184.76 178.75,188.00 176.70,188.00 C175.76,188.00 174.94,186.93 174.29,185.00 C174.95,186.86 175.79,187.99 176.79,187.99 C177.73,187.98 181.20,187.06 184.50,185.95 ZM 418.80 288.05 C422.24,296.23 423.21,309.47 420.34,313.88 C418.67,316.44 418.12,316.45 402.25,314.13 C398.26,313.54 396.67,313.53 397.00,313.86 C396.98,313.84 396.97,313.83 396.96,313.82 C396.66,313.39 393.51,312.60 389.96,312.04 C386.41,311.49 379.45,310.35 374.50,309.51 C362.66,307.49 344.72,305.95 339.03,306.39 C341.54,305.85 344.36,306.08 348.62,306.48 C353.10,306.90 356.00,306.80 356.00,306.22 C356.00,305.11 348.86,304.00 341.70,304.00 C335.56,304.00 334.16,304.99 320.00,319.42 C314.23,325.30 308.68,330.58 307.67,331.14 C303.20,333.62 299.21,323.42 300.34,312.38 C301.68,299.30 302.55,296.24 306.31,291.41 C308.34,288.80 310.00,286.15 310.00,285.52 C310.00,284.89 311.34,283.09 312.98,281.52 C315.65,278.96 316.73,278.64 323.23,278.47 C327.68,278.36 333.09,277.41 337.16,276.03 C343.60,273.85 344.06,273.83 351.66,275.30 C362.62,277.42 375.34,276.31 383.50,272.51 C385.63,271.52 388.01,270.65 389.83,270.18 C391.62,269.83 393.27,269.91 395.25,270.43 C398.93,271.56 404.36,273.96 408.26,276.20 C410.88,277.78 412.90,279.42 414.60,281.35 C416.21,283.29 417.67,285.62 418.80,288.05 ZM 83.32 270.41 C82.99,270.54 83.64,271.04 85.50,271.96 C94.24,276.26 106.06,276.95 119.16,273.93 C124.56,272.68 125.12,272.75 131.16,275.32 C134.65,276.79 139.14,278.00 141.14,278.00 C143.23,278.00 145.78,278.81 147.13,279.91 C148.85,281.29 149.97,281.55 151.25,280.86 C153.68,279.56 159.30,283.93 161.46,288.80 C162.37,290.83 163.76,293.69 164.55,295.15 C165.35,296.61 166.00,298.88 166.00,300.18 C166.00,301.49 166.72,303.58 167.60,304.84 C168.87,306.65 169.09,308.75 168.67,314.82 C167.78,327.65 166.92,330.45 163.74,330.82 C161.48,331.08 159.98,330.04 155.25,324.94 C144.83,313.72 141.54,310.48 138.25,308.16 C136.46,306.90 135.01,306.01 135.02,306.18 C135.03,306.29 137.45,308.92 141.09,312.77 C133.42,305.21 130.91,304.72 124.16,305.31 C120.88,305.60 115.78,306.39 112.19,307.14 C113.56,306.40 112.52,305.80 108.40,306.25 C93.44,307.89 78.00,310.91 78.00,312.20 C78.00,312.75 78.91,312.97 80.38,312.82 C77.06,313.37 73.81,313.92 69.49,314.67 C72.75,313.96 75.07,313.29 75.43,312.91 C76.58,311.71 75.58,311.78 60.26,314.04 C49.15,315.68 49.00,315.53 49.00,302.91 C49.00,293.35 49.30,291.98 53.39,283.08 C54.00,281.75 56.47,279.50 58.87,278.08 C61.27,276.66 63.75,275.03 64.37,274.46 C64.99,273.88 66.98,272.81 68.78,272.07 C70.59,271.33 71.84,270.51 71.56,270.23 C70.85,269.52 65.32,271.89 59.64,275.35 L 59.62 275.36 C61.86,273.85 64.42,272.48 67.32,271.21 C74.11,268.24 78.43,267.96 84.10,270.12 C84.79,270.38 85.44,270.63 86.07,270.86 C84.54,270.44 83.56,270.28 83.32,270.41 ZM 247.49 390.95 C252.43,390.39 256.93,389.43 257.49,388.84 C257.74,388.57 257.78,388.37 257.60,388.26 C276.00,386.11 294.70,379.40 313.50,368.20 C324.55,361.62 341.50,346.91 349.50,336.97 C352.25,333.55 355.71,329.34 357.18,327.62 L 359.86 324.50 L 363.43 326.41 C365.39,327.46 367.00,328.97 367.00,329.78 C367.00,330.59 364.89,334.23 362.31,337.87 C348.91,356.80 323.71,376.93 300.50,387.25 C290.30,391.79 274.88,396.68 265.95,398.21 C262.13,398.87 259.00,399.73 259.00,400.11 C259.00,400.48 255.42,401.05 250.91,401.39 C252.00,401.28 253.04,401.15 254.00,401.02 C257.77,400.49 252.83,400.21 238.25,400.12 C236.86,400.11 235.53,400.11 234.26,400.11 C233.77,400.11 233.27,400.10 232.75,400.10 C228.46,400.07 224.93,400.16 222.29,400.31 C218.89,400.46 217.00,400.68 217.00,400.96 C217.00,400.97 217.00,400.98 217.00,400.99 C216.85,401.07 216.80,401.14 216.83,401.21 C216.70,401.17 216.58,401.14 216.50,401.10 C215.40,400.61 209.55,399.29 203.50,398.16 C168.95,391.69 136.13,372.35 112.27,344.40 C101.22,331.45 100.30,329.35 104.46,326.62 C108.62,323.89 110.23,324.67 116.13,332.26 C119.23,336.24 124.24,342.21 127.26,345.52 C133.55,352.42 150.06,365.32 158.66,370.06 C161.87,371.83 166.30,374.27 168.50,375.48 C170.70,376.69 175.20,378.66 178.50,379.86 C181.80,381.07 185.40,382.43 186.50,382.89 C199.11,388.17 215.17,390.20 239.30,389.40 C236.94,389.52 234.46,389.64 232.00,389.75 C219.43,390.28 216.05,390.66 220.00,391.08 C229.23,392.07 238.06,392.03 247.49,390.95 ZM 128.90 240.56 C129.00,240.70 129.14,240.77 129.32,240.77 C128.43,242.38 127.33,244.08 126.03,245.92 C122.34,251.12 120.23,252.99 114.84,255.79 C109.55,258.55 106.82,259.32 101.35,259.58 C97.58,259.77 92.78,259.49 90.68,258.96 C83.44,257.14 73.81,248.87 70.24,241.38 C69.36,239.52 68.30,238.00 67.89,238.00 C67.79,238.00 67.68,237.82 67.55,237.50 C67.75,237.82 67.97,238.00 68.21,238.00 C68.90,238.00 69.03,235.97 68.59,232.05 C68.16,228.27 68.44,224.48 69.35,220.90 C69.52,220.49 69.70,220.02 69.88,219.50 C70.63,217.34 71.29,215.59 71.98,214.11 C73.68,210.91 75.96,208.04 78.73,205.71 C78.78,205.66 78.84,205.61 78.90,205.57 C86.46,199.29 86.88,199.18 105.69,198.95 C115.09,198.83 123.35,206.27 129.37,220.28 C131.36,224.92 131.43,229.24 129.61,235.29 C129.11,236.97 128.82,238.27 128.74,239.18 C128.65,239.87 128.67,240.34 128.80,240.46 C128.83,240.50 128.87,240.53 128.90,240.56 ZM 375.21 257.82 C373.29,258.11 371.18,258.25 368.86,258.26 C365.47,258.26 363.09,258.08 361.37,257.67 C360.25,257.31 359.21,256.86 358.59,256.42 C357.47,255.64 355.96,255.00 355.24,255.00 C353.72,255.00 353.21,254.64 346.75,248.94 C344.14,246.63 342.00,244.18 342.00,243.50 C342.00,242.81 341.06,240.13 339.91,237.52 C337.77,232.69 337.74,230.22 339.74,219.96 C340.80,214.49 341.63,213.00 343.64,213.00 C344.48,213.00 347.04,211.53 349.33,209.74 C356.67,204.00 359.43,202.92 367.23,202.77 C371.23,202.69 377.80,203.24 381.84,204.00 C387.15,205.00 388.81,205.49 390.88,207.59 C391.53,208.28 392.23,209.15 393.11,210.26 C393.48,210.73 393.84,211.20 394.18,211.68 C395.78,214.07 397.39,217.13 398.14,219.32 C398.33,219.86 398.51,220.34 398.67,220.76 C400.35,226.33 400.20,231.95 398.00,236.50 C396.94,238.70 396.05,241.27 396.03,242.21 C396.00,243.74 391.67,248.55 386.10,253.23 C383.59,255.34 379.59,256.96 375.21,257.82 ZM 203.33 101.74 L 203.79 103.50 L 203.87 101.16 C203.91,100.44 203.95,99.40 203.99,98.00 C204.43,84.18 206.28,80.77 216.00,75.87 C223.10,72.29 224.02,72.08 233.13,72.04 C241.28,72.01 243.62,72.38 248.40,74.50 C251.51,75.88 254.54,77.00 255.12,77.00 C259.41,77.00 264.90,87.26 264.97,95.41 C265.06,106.12 258.33,117.92 249.68,122.23 C238.77,127.66 234.39,128.10 224.27,124.78 C216.28,122.16 210.44,116.83 206.86,108.89 C205.59,106.10 204.40,104.30 204.20,104.90 C204.14,105.09 204.12,105.33 204.14,105.61 C203.15,102.75 202.52,99.91 202.34,97.38 C202.37,97.66 202.41,97.94 202.46,98.23 C202.53,98.86 202.64,99.45 202.80,100.00 C203.02,100.75 203.19,101.34 203.33,101.74 ZM 214.95 350.66 C213.59,349.95 211.21,349.31 208.92,348.90 L 208.92 348.90 C205.80,348.28 203.00,348.13 203.00,348.84 C203.00,348.85 203.00,348.86 203.00,348.87 C203.00,348.89 203.00,348.90 203.00,348.92 C203.00,349.08 203.14,349.26 203.39,349.45 C201.69,348.87 200.17,348.29 199.00,347.77 C184.45,341.34 182.00,339.88 182.00,337.66 C182.00,332.89 186.88,329.28 189.62,332.02 C192.88,335.28 212.17,340.81 224.80,342.10 C226.17,342.24 227.40,342.36 228.53,342.45 C227.70,342.41 226.88,342.34 226.07,342.27 C224.29,342.10 222.63,341.99 221.23,341.93 C218.74,341.78 217.00,341.86 217.00,342.15 C217.00,342.16 217.00,342.16 217.00,342.16 C217.08,343.39 225.36,343.94 234.43,343.75 C239.99,343.77 245.27,343.52 247.43,342.94 C248.79,342.78 250.08,342.61 251.24,342.40 C260.03,340.89 264.71,339.38 263.72,338.39 C263.71,338.38 263.70,338.37 263.69,338.36 C268.45,337.62 275.92,334.92 281.24,331.96 C284.06,330.40 284.94,330.81 286.71,334.53 C288.33,337.91 288.31,338.13 286.39,340.06 C282.58,343.86 258.90,352.00 251.64,352.00 C250.25,352.00 248.84,352.45 248.50,353.00 C248.54,352.94 248.46,352.87 248.27,352.81 C247.24,352.34 242.51,351.96 235.57,351.80 C232.42,351.73 229.87,351.71 227.91,351.74 C224.90,351.74 222.18,351.80 220.29,351.96 C219.24,352.04 217.25,351.62 215.57,350.98 ZM 106.15 176.22 C106.73,174.34 105.39,174.68 103.08,177.75 C101.95,179.26 100.55,181.06 99.97,181.75 C98.77,183.19 94.39,183.43 93.57,182.11 C92.52,180.41 107.11,154.00 109.10,154.00 C109.52,154.00 110.14,153.13 110.48,152.08 C111.19,149.81 134.22,126.00 135.69,126.00 C136.24,126.00 138.00,124.87 139.59,123.48 C145.16,118.65 149.53,116.22 153.75,115.60 C157.19,115.10 158.00,115.27 158.00,116.52 C158.00,118.26 152.51,124.00 150.85,124.00 C150.26,124.00 147.69,125.75 145.14,127.88 C142.59,130.01 139.60,131.94 138.50,132.17 C137.35,132.40 136.61,133.25 136.76,134.15 C137.06,135.96 134.91,138.04 132.35,138.42 C130.93,138.63 128.42,143.75 129.30,144.64 C129.40,144.74 131.56,142.95 134.51,140.34 C127.15,147.08 124.33,149.99 120.50,154.46 C114.13,161.91 112.28,164.68 107.07,174.50 C106.77,175.08 106.46,175.65 106.15,176.22 ZM 152.00 177.50 C148.84,180.80 144.50,185.46 142.34,187.86 L 138.41 192.22 L 135.20 189.52 C133.44,188.04 132.00,186.04 132.00,185.08 C132.00,181.84 154.83,159.00 158.07,159.00 C158.57,159.00 158.69,161.78 158.35,165.25 C157.77,171.17 157.43,171.81 152.00,177.50 ZM 330.41 189.23 C329.82,188.83 328.91,187.73 328.40,186.79 C327.89,185.86 324.27,181.78 320.35,177.73 C314.56,171.74 313.11,169.58 312.52,166.12 C312.12,163.78 312.03,161.64 312.31,161.36 C314.36,159.30 336.00,180.49 336.00,184.56 C336.00,185.73 335.18,187.43 334.17,188.35 C332.11,190.21 331.92,190.26 330.41,189.23 ZM 346.00 146.71 C344.62,146.02 343.36,144.50 343.19,143.33 C343.03,142.16 342.01,140.42 340.94,139.45 C339.87,138.48 339.00,137.08 339.00,136.35 C339.00,135.52 337.85,135.00 336.04,135.00 C334.09,135.00 332.70,134.31 332.00,133.00 C331.41,131.90 330.30,131.00 329.53,131.00 C328.76,131.00 327.88,130.21 327.56,129.25 C327.25,128.29 324.76,125.93 322.03,124.00 C317.19,120.59 315.97,117.82 319.04,117.23 C319.87,117.07 321.54,117.85 322.74,118.97 C323.94,120.09 325.60,121.00 326.45,121.00 C327.29,121.00 329.11,122.79 330.49,124.98 C332.06,127.47 334.03,129.20 335.75,129.61 C338.86,130.34 348.00,139.25 348.00,141.55 C348.00,142.38 348.67,143.32 349.50,143.64 C351.31,144.33 351.52,148.01 349.75,147.99 C349.06,147.98 347.38,147.40 346.00,146.71 ZM 368.57 179.63 C366.61,177.78 365.00,175.33 365.00,174.18 C365.00,173.04 364.38,171.74 363.63,171.30 C361.65,170.15 355.85,158.85 356.44,157.30 C357.27,155.14 360.79,155.84 362.70,158.55 C363.69,159.96 365.96,162.92 367.74,165.13 C370.54,168.62 377.00,180.65 377.00,182.39 C377.00,184.29 371.66,182.54 368.57,179.63 ZM 158.46 113.94 C158.16,113.46 159.52,112.39 161.47,111.58 C163.43,110.76 165.28,109.43 165.59,108.62 C166.58,106.05 172.49,103.86 175.42,104.97 C179.22,106.41 178.57,108.73 173.75,110.90 C167.50,113.72 159.33,115.34 158.46,113.94 ZM 290.68 109.18 C287.37,108.54 289.60,104.00 293.24,104.00 C295.43,104.00 299.64,106.61 300.32,108.40 C300.68,109.33 299.65,109.66 296.59,109.59 C294.27,109.54 291.61,109.35 290.68,109.18 ZM 352.50 153.00 C351.59,151.52 352.85,150.00 354.47,150.63 C355.24,150.92 355.63,151.80 355.33,152.58 C354.70,154.23 353.38,154.43 352.50,153.00 ZM 47.61 293.92 C47.54,295.68 47.53,297.93 47.52,301.00 C47.51,307.75 47.79,312.56 48.34,315.30 C47.33,311.32 46.81,301.97 47.38,295.80 C47.44,295.16 47.52,294.53 47.61,293.92 ZM 86.37 197.92 C86.47,197.87 86.57,197.82 86.67,197.78 C93.07,194.89 102.87,194.65 110.18,196.98 C106.91,195.98 103.40,195.53 99.50,195.55 C94.69,195.58 90.29,196.38 86.37,197.92 ZM 66.40 230.78 C65.76,222.79 67.95,215.27 72.45,209.12 C70.32,212.26 68.62,215.91 67.39,220.05 C66.57,222.83 66.27,227.10 66.40,230.78 ZM 256.23 339.47 C250.39,340.70 245.47,341.54 241.08,342.02 C242.85,341.77 244.87,341.42 247.30,340.99 C250.41,340.44 253.56,339.90 256.23,339.47 ZM 132.43 224.96 C131.82,220.12 130.16,215.09 127.77,210.86 C130.28,214.95 131.88,219.67 132.49,224.92 C132.51,225.11 132.53,225.29 132.55,225.48 C132.51,225.31 132.47,225.14 132.43,224.96 ZM 93.00 310.65 C96.10,310.11 99.87,309.50 102.90,309.04 C99.93,309.59 96.75,310.15 94.00,310.60 C89.72,311.29 86.46,311.81 83.52,312.30 C85.98,311.87 89.65,311.23 93.00,310.65 ZM 245.49 140.78 C247.05,140.39 248.61,139.92 250.15,139.36 C252.37,138.57 254.33,137.93 256.12,137.44 C259.70,136.38 262.74,136.01 265.83,136.31 C268.44,136.54 271.02,137.26 274.06,138.45 C271.05,137.27 268.42,136.55 265.83,136.31 C262.87,136.04 259.87,136.41 256.12,137.44 C254.68,137.86 253.15,138.39 251.50,139.04 C249.70,139.74 247.73,140.32 245.49,140.78 ZM 174.34 157.95 C173.42,160.73 172.88,164.40 172.68,168.21 C172.76,163.42 173.14,160.98 174.34,157.95 ZM 153.16 325.37 C162.24,334.54 164.56,335.44 166.95,332.56 C164.46,335.56 162.02,334.52 153.16,325.37 ZM 230.02 402.32 C234.01,402.42 236.32,402.41 238.42,402.20 C239.56,402.16 240.70,402.12 241.83,402.06 C240.52,402.16 239.51,402.24 239.00,402.29 C236.92,402.47 233.26,402.46 229.49,402.32 C229.66,402.32 229.84,402.32 230.02,402.32 ZM 92.62 273.01 L 92.59 273.00 C95.64,273.78 98.12,273.92 101.61,273.66 C99.56,273.85 98.05,273.91 96.74,273.83 C95.26,273.62 93.87,273.35 92.62,273.01 ZM 418.63 318.64 C417.46,318.36 412.23,317.33 407.00,316.35 C412.39,317.33 417.67,318.36 418.76,318.65 C419.10,318.74 419.38,318.78 419.64,318.77 C419.35,318.79 419.02,318.74 418.63,318.64 ZM 54.81 279.28 C53.49,280.66 52.25,282.22 51.16,283.90 C51.07,284.05 50.98,284.20 50.88,284.34 C51.95,282.52 53.25,280.84 54.81,279.28 ZM 111.33 272.39 C115.53,271.59 119.85,270.44 122.56,269.37 C119.72,270.50 115.59,271.60 111.33,272.39 ZM 159.09 121.83 C163.69,118.98 168.41,116.31 172.96,114.02 C168.69,116.17 163.82,118.93 159.09,121.83 ZM 209.10 115.63 C210.55,117.69 212.14,119.59 213.59,120.87 C211.99,119.46 210.47,117.66 209.10,115.63 ZM 101.60 183.63 C101.82,183.40 102.15,182.97 102.56,182.40 C102.15,183.03 101.84,183.46 101.67,183.63 C100.89,184.38 98.81,184.99 96.66,185.29 C98.80,184.99 100.86,184.38 101.60,183.63 ZM 202.77 92.38 C202.57,93.09 202.43,93.78 202.35,94.46 C202.43,93.58 202.59,92.78 202.83,92.05 C202.81,92.16 202.79,92.27 202.77,92.38 ZM 215.73 352.92 C216.53,353.08 217.29,353.22 218.00,353.33 C220.71,353.76 227.78,353.92 234.44,353.86 C227.80,353.92 220.74,353.76 218.00,353.34 C217.33,353.24 216.57,353.09 215.73,352.92 ZM 208.07 77.58 C210.20,74.67 212.85,71.85 215.24,70.24 C212.89,71.82 210.22,74.66 208.07,77.58 ZM 420.13 318.63 C420.83,318.26 421.23,317.06 421.83,314.34 C421.23,317.07 420.84,318.26 420.13,318.63 ZM 289.18 187.86 C290.50,188.33 291.99,188.74 293.12,188.91 C291.94,188.74 290.48,188.33 289.18,187.86 ZM 304.99 333.80 C303.86,333.64 303.01,332.74 302.25,331.10 C303.01,332.73 303.86,333.64 304.98,333.79 Z" fill="rgb(252,218,10)"/>
</g>
</svg>