<svg xmlns="http://www.w3.org/2000/svg" width="500" height="500" viewBox="0 0 500 500">
<g>
<path d="M 222.39 224.88 C220.55,235.85 218.35,240.09 219.47,230.50 C219.86,227.20 220.81,221.43 221.59,217.68 C222.36,213.94 223.00,210.17 223.00,209.32 C223.00,208.47 219.54,204.22 215.32,199.88 C207.07,191.40 205.92,191.02 201.28,195.26 C199.11,197.24 199.03,197.25 198.36,195.40 C197.97,194.35 196.61,192.23 195.33,190.67 C193.84,188.87 192.99,186.52 192.98,184.17 C192.96,182.15 192.55,178.70 192.05,176.50 C191.22,172.79 189.26,152.82 188.64,141.67 C188.50,139.02 187.89,136.55 187.29,136.17 C185.33,134.95 161.99,136.38 161.14,137.78 C159.81,139.93 160.79,169.11 162.45,177.09 C163.98,184.40 164.46,189.80 163.51,188.85 C161.73,187.06 158.00,154.67 158.00,140.95 L 158.00 135.00 L 162.25 134.96 C174.59,134.83 187.82,134.80 190.23,134.89 C192.73,134.99 192.87,135.21 191.98,137.57 C190.89,140.42 190.84,147.21 191.88,150.93 C192.28,152.36 194.29,154.32 196.75,155.69 L 200.94 158.02 L 202.41 155.76 C204.20,153.02 206.11,144.90 206.18,139.67 C206.21,137.57 206.75,135.68 207.37,135.48 C207.99,135.29 237.75,134.98 273.50,134.81 C309.25,134.64 333.10,134.78 326.50,135.11 C319.90,135.45 307.52,135.80 299.00,135.88 C289.61,135.97 281.53,136.56 278.50,137.37 C271.92,139.15 263.95,142.96 263.30,144.65 C263.02,145.39 261.99,146.00 261.02,146.00 C256.15,146.00 255.58,152.54 259.59,162.42 C260.92,165.67 261.83,168.50 261.64,168.70 C261.44,168.89 259.45,165.31 257.22,160.72 C253.07,152.18 250.84,149.36 249.10,150.44 C248.55,150.78 246.25,154.86 243.99,159.53 C241.72,164.19 239.42,168.00 238.87,168.00 C238.30,168.00 238.15,167.02 238.52,165.75 C242.02,153.70 242.85,150.00 242.03,150.00 C241.60,150.00 240.72,150.63 240.08,151.40 C239.08,152.60 238.03,152.59 232.71,151.31 C229.29,150.49 222.97,149.68 218.65,149.52 L 210.80 149.23 L 209.50 152.36 C207.49,157.20 205.74,170.79 206.49,175.76 L 207.16 180.23 L 210.83 179.65 C212.85,179.33 217.20,178.77 220.50,178.41 C230.69,177.28 225.47,179.54 213.50,181.43 C207.45,182.39 202.30,183.37 202.05,183.62 C201.80,183.87 206.64,189.12 212.80,195.30 C219.28,201.80 222.42,204.77 223.56,208.37 C224.61,211.69 223.96,215.55 222.67,223.21 C222.58,223.75 222.49,224.30 222.39,224.88 ZM 229.90 307.00 C228.58,307.00 227.92,308.29 227.20,312.25 L 226.24 317.50 L 226.12 311.72 C225.98,304.78 226.69,304.30 234.13,306.36 C242.05,308.55 250.34,309.26 254.68,308.11 C263.43,305.80 272.28,303.94 272.67,304.33 C273.72,305.39 274.18,312.00 273.20,312.00 C272.62,312.00 272.00,310.99 271.82,309.75 C271.38,306.68 267.07,306.00 266.32,308.89 C265.72,311.17 263.67,312.09 259.38,311.98 C257.80,311.94 253.51,312.21 249.85,312.58 C243.65,313.21 242.81,313.05 237.42,310.13 C234.24,308.41 230.86,307.00 229.90,307.00 ZM 107.76 164.29 C108.09,171.62 107.35,171.65 106.44,164.33 C106.41,164.10 106.38,163.88 106.35,163.67 C105.98,160.74 105.74,158.87 106.53,157.65 C107.99,155.40 112.96,155.43 127.10,155.23 L 127.80 155.22 C141.73,155.02 146.51,154.95 148.15,157.19 C149.00,158.35 149.00,160.15 149.00,162.87 L 149.00 163.13 L 149.00 167.89 L 136.50 168.19 C129.62,168.36 124.00,168.16 124.00,167.75 C124.00,167.34 129.40,167.00 136.00,167.00 L 148.00 167.00 L 148.00 163.58 C148.00,163.43 148.00,163.29 148.00,163.15 C148.00,161.09 148.01,159.75 147.37,158.86 C146.15,157.17 142.61,157.16 132.32,157.13 C131.95,157.13 131.57,157.13 131.18,157.13 C122.55,157.10 113.70,157.42 111.50,157.83 L 107.50 158.58 ZM 413.07 254.10 C412.06,256.35 410.53,258.89 409.68,259.75 C408.28,261.15 407.86,260.75 405.32,255.58 C402.71,250.26 402.01,249.62 395.26,246.42 C391.27,244.52 388.00,242.80 388.00,242.58 C388.00,242.37 389.40,241.71 391.11,241.11 C393.74,240.19 394.04,240.24 393.06,241.42 C391.76,242.99 391.91,243.13 398.50,246.47 C401.10,247.79 403.32,249.99 404.82,252.75 C406.10,255.09 407.71,257.00 408.39,257.00 C409.07,257.00 410.38,255.43 411.30,253.50 C413.65,248.56 415.30,249.12 413.07,254.10 ZM 91.43 262.89 C91.81,263.50 91.98,263.96 91.81,263.91 C87.39,262.59 75.50,256.78 75.50,255.95 C75.50,255.32 77.53,254.03 80.00,253.08 C88.77,249.73 92.26,247.62 94.11,244.58 C95.31,242.62 95.99,242.11 96.00,243.17 C96.00,245.52 88.81,251.41 84.01,253.00 C81.81,253.72 80.00,254.93 80.00,255.67 C80.00,256.42 82.42,258.09 85.37,259.40 C88.33,260.71 91.05,262.28 91.43,262.89 ZM 182.50 263.99 C181.73,265.25 180.99,265.22 178.63,263.85 C177.19,263.01 177.06,262.58 178.06,261.96 C179.07,261.34 178.61,259.73 176.05,254.83 C174.22,251.35 171.58,247.26 170.18,245.75 C168.77,244.24 168.08,243.00 168.62,243.00 C170.49,243.00 174.00,247.07 176.63,252.29 C178.08,255.16 180.13,258.73 181.19,260.24 C182.26,261.75 182.85,263.44 182.50,263.99 ZM 342.00 145.00 C342.00,150.53 341.58,155.00 341.07,155.00 C340.55,155.00 339.99,150.50 339.82,145.00 C339.58,137.49 339.81,135.00 340.75,135.00 C341.67,135.00 342.00,137.67 342.00,145.00 ZM 125.48 257.02 C123.09,259.66 121.70,259.53 122.56,256.75 C123.47,253.77 123.63,253.65 125.59,254.40 C127.15,254.99 127.14,255.19 125.48,257.02 ZM 388.44 189.38 C388.08,190.82 387.33,192.00 386.78,192.00 C385.87,192.00 386.53,187.14 387.58,186.09 C388.56,185.10 389.05,186.96 388.44,189.38 Z" fill="rgb(248,233,85)"/>
<path d="M 327.15 134.95 C323.87,134.74 302.64,134.67 273.50,134.81 C237.75,134.98 207.99,135.29 207.37,135.48 C206.75,135.68 206.21,137.57 206.18,139.67 C206.11,144.90 204.20,153.02 202.41,155.76 L 200.94 158.02 L 196.75 155.69 C194.29,154.32 192.28,152.36 191.88,150.93 C190.84,147.21 190.89,140.42 191.98,137.57 C192.87,135.21 192.73,134.99 190.23,134.89 C187.82,134.80 174.59,134.83 162.25,134.96 L 160.99 134.97 L 163.25 134.80 C166.14,134.58 206.75,134.38 253.50,134.34 C298.14,134.31 330.11,134.58 327.15,134.95 ZM 153.79 297.68 C152.53,300.06 150.83,301.98 150.00,301.96 C149.18,301.94 147.60,300.06 146.50,297.77 C144.45,293.52 143.88,293.05 138.25,290.96 C133.69,289.27 134.20,287.60 140.01,285.18 C144.28,283.41 145.32,282.42 146.98,278.55 C148.05,276.05 149.39,274.00 149.95,274.00 C150.51,274.00 152.05,276.14 153.38,278.75 C155.42,282.77 156.57,283.80 160.89,285.47 C163.70,286.55 166.00,287.97 166.00,288.62 C166.00,289.27 163.77,290.60 161.04,291.58 C156.98,293.04 155.67,294.14 153.79,297.68 ZM 148.50 296.99 C149.35,298.65 150.26,300.00 150.51,300.00 C150.77,300.00 152.12,298.18 153.52,295.96 C154.93,293.74 157.18,291.50 158.54,290.99 C161.76,289.76 161.65,288.28 158.18,286.29 C156.62,285.39 154.35,283.13 153.12,281.26 L 150.88 277.85 L 146.69 282.17 C144.39,284.55 141.61,286.99 140.52,287.59 C138.69,288.61 138.85,288.88 142.74,291.34 C145.05,292.80 147.64,295.34 148.50,296.99 ZM 131.44 168.25 C132.99,168.26 134.70,168.24 136.50,168.19 L 149.00 167.89 L 149.00 163.13 L 149.00 162.87 C149.00,160.15 149.00,158.35 148.15,157.19 C146.51,154.95 141.73,155.02 127.80,155.22 L 127.10 155.23 C112.96,155.43 107.99,155.40 106.53,157.65 C105.74,158.87 105.98,160.74 106.35,163.67 C106.38,163.88 106.41,164.10 106.44,164.33 C106.55,165.24 106.66,166.04 106.77,166.73 C105.98,163.32 105.00,158.34 105.00,157.26 C105.00,153.94 107.61,153.47 127.65,153.19 L 147.64 152.91 L 148.82 155.50 C149.47,156.93 150.00,160.30 150.00,162.99 L 150.00 167.89 L 137.00 168.19 C135.01,168.24 133.12,168.26 131.44,168.25 ZM 247.37 308.60 C243.38,308.39 238.70,307.62 234.13,306.36 C227.40,304.50 226.17,304.71 226.11,309.93 L 226.00 303.79 L 230.75 304.37 C233.36,304.69 238.52,305.94 242.21,307.14 C244.40,307.86 245.88,308.36 247.37,308.60 ZM 406.82 229.50 C406.19,230.88 405.30,232.00 404.84,232.00 C403.68,232.00 403.76,231.57 405.69,227.53 C407.39,223.96 410.00,222.73 410.00,225.50 C410.00,226.32 409.54,227.00 408.98,227.00 C408.42,227.00 407.44,228.12 406.82,229.50 ZM 272.66 304.33 C272.44,304.14 270.10,304.52 266.71,305.23 C269.79,304.50 272.42,304.09 272.65,304.32 C272.66,304.32 272.66,304.33 272.66,304.33 ZM 251.72 308.58 C252.83,308.43 254.12,308.19 255.71,307.84 C255.37,307.93 255.02,308.02 254.68,308.11 C253.83,308.34 252.83,308.49 251.72,308.58 ZM 107.59 169.80 C107.82,169.69 107.91,168.00 107.78,164.73 C107.90,167.67 107.87,170.00 107.71,170.00 C107.68,170.00 107.64,169.93 107.59,169.80 Z" fill="rgb(246,241,163)"/>
<path d="M 327.15 134.95 C330.11,134.58 298.14,134.31 253.50,134.34 C207.55,134.38 167.52,134.58 163.43,134.79 C174.83,134.07 334.67,133.85 338.42,134.55 L 342.17 135.25 L 341.94 140.46 C341.80,136.53 341.44,135.00 340.75,135.00 C339.81,135.00 339.58,137.49 339.82,145.00 C339.99,150.45 340.54,154.92 341.05,155.00 C340.16,164.73 338.53,176.19 336.47,187.00 C334.80,195.74 329.57,215.94 328.05,219.50 C327.58,220.60 326.19,224.20 324.96,227.50 C317.96,246.24 306.13,265.03 293.43,277.59 C285.80,285.13 282.65,287.45 274.87,291.28 C269.05,294.15 263.04,296.29 259.00,296.94 C243.40,299.45 232.12,296.84 217.90,287.42 C201.14,276.31 184.38,252.73 174.28,226.00 C170.52,216.06 167.78,207.17 165.96,199.00 C165.29,195.98 164.16,191.48 163.45,189.00 C163.42,188.87 163.38,188.73 163.34,188.59 C163.40,188.70 163.46,188.79 163.51,188.85 C164.46,189.80 163.98,184.40 162.45,177.09 C160.79,169.11 159.81,139.93 161.14,137.78 C161.99,136.38 185.33,134.95 187.29,136.17 C187.89,136.55 188.50,139.02 188.64,141.67 C189.26,152.82 191.22,172.79 192.05,176.50 C192.55,178.70 192.96,182.15 192.98,184.17 C192.99,186.52 193.84,188.87 195.33,190.67 C196.61,192.23 197.97,194.35 198.36,195.40 C199.03,197.25 199.11,197.24 201.28,195.26 C205.92,191.02 207.07,191.40 215.32,199.88 C219.54,204.22 223.00,208.47 223.00,209.32 C223.00,210.17 222.36,213.94 221.59,217.68 C220.81,221.43 219.86,227.20 219.47,230.50 C218.52,238.66 219.97,236.81 221.56,229.32 C220.71,234.44 220.25,238.59 220.52,239.03 C221.16,240.07 228.23,237.10 239.41,231.11 C243.63,228.85 248.25,227.00 249.67,227.00 C251.10,227.00 257.66,229.70 264.24,233.00 C270.83,236.30 277.07,239.00 278.11,239.00 C280.58,239.00 280.56,236.48 278.00,221.50 C276.90,215.07 276.00,209.23 276.00,208.54 C276.00,207.84 280.65,202.55 286.34,196.78 C296.52,186.45 298.71,183.56 297.09,182.56 C296.65,182.28 290.03,181.10 282.39,179.94 C274.75,178.78 267.60,177.25 266.50,176.55 C265.51,175.91 262.58,171.17 259.70,165.60 C260.76,167.59 261.52,168.81 261.64,168.70 C261.83,168.50 260.92,165.67 259.59,162.42 C255.58,152.54 256.15,146.00 261.02,146.00 C261.99,146.00 263.02,145.39 263.30,144.65 C263.95,142.96 271.92,139.15 278.50,137.37 C281.53,136.56 289.61,135.97 299.00,135.88 C307.52,135.80 319.90,135.45 326.50,135.11 C327.72,135.05 327.90,135.00 327.15,134.95 ZM 325.25 388.39 C322.86,389.10 180.26,388.79 176.50,388.07 C172.67,387.33 172.47,385.55 174.76,372.50 L 176.51 362.50 L 323.36 362.50 L 325.12 370.50 C327.51,381.31 327.55,387.70 325.25,388.39 ZM 229.90 307.00 C230.86,307.00 234.24,308.41 237.42,310.13 C242.81,313.05 243.65,313.21 249.85,312.58 C253.51,312.21 257.80,311.94 259.38,311.98 C263.67,312.09 265.72,311.17 266.32,308.89 C267.07,306.00 271.38,306.68 271.82,309.75 C272.00,310.99 272.62,312.00 273.20,312.00 C273.51,312.00 273.68,311.32 273.73,310.36 C273.86,311.53 273.99,312.81 274.12,314.14 C275.14,325.21 276.94,335.05 278.24,336.72 C278.88,337.54 283.37,338.03 291.85,338.22 L 304.50 338.50 L 305.04 342.53 C305.33,344.75 305.31,347.67 304.99,349.03 L 304.41 351.50 L 250.33 351.76 C204.67,351.98 196.08,351.80 195.08,350.60 C193.64,348.86 194.72,339.07 196.38,338.85 C197.00,338.76 197.95,338.59 198.50,338.46 C199.05,338.34 204.23,338.17 210.00,338.10 C215.77,338.03 221.02,337.64 221.66,337.23 C222.94,336.41 226.00,316.32 226.00,308.69 L 226.00 303.79 L 226.11 309.93 C226.10,310.47 226.11,311.07 226.12,311.72 L 226.24 317.50 L 227.20 312.25 C227.92,308.29 228.58,307.00 229.90,307.00 ZM 328.75 260.20 C323.45,262.76 319.00,263.80 319.00,262.46 C319.00,261.50 323.20,253.66 325.88,249.61 C327.31,247.44 331.08,243.78 334.25,241.47 C354.39,226.82 367.58,207.61 375.76,181.00 C376.35,179.07 377.14,175.61 377.50,173.29 C378.31,168.12 378.23,168.09 362.00,167.75 L 350.50 167.50 L 350.21 163.00 C349.66,154.72 349.97,154.59 372.03,154.26 C385.61,154.06 391.68,154.32 392.67,155.14 C394.21,156.42 393.99,159.48 391.31,173.50 C390.47,177.90 389.42,183.59 388.97,186.14 C388.89,186.58 388.80,187.03 388.71,187.48 C388.73,186.13 388.28,185.39 387.58,186.09 C386.53,187.14 385.87,192.00 386.78,192.00 C387.07,192.00 387.42,191.67 387.73,191.15 C387.52,191.79 387.31,192.31 387.13,192.64 C386.57,193.66 384.14,199.00 381.72,204.50 C375.65,218.34 369.21,227.82 358.58,238.55 C349.45,247.76 339.49,255.00 328.75,260.20 ZM 107.76 164.29 L 107.50 158.58 L 111.50 157.83 C113.70,157.42 122.55,157.10 131.18,157.13 C131.57,157.13 131.95,157.13 132.32,157.13 C142.61,157.16 146.15,157.17 147.37,158.86 C147.96,159.69 148.00,160.92 148.00,162.76 C148.00,162.83 148.00,162.91 148.00,162.99 L 148.00 163.11 L 148.00 163.15 L 148.00 163.26 C148.00,163.36 148.00,163.47 148.00,163.58 L 148.00 167.00 L 136.00 167.00 C129.40,167.00 124.00,167.34 124.00,167.75 C124.00,168.05 127.06,168.24 131.44,168.25 C132.31,168.26 133.25,168.25 134.22,168.24 C127.88,168.46 122.75,168.91 122.35,169.31 C120.10,171.58 129.53,197.95 137.43,211.46 C142.45,220.06 161.45,239.46 168.17,242.87 C168.28,242.92 168.39,242.98 168.50,243.03 C168.22,243.24 168.91,244.39 170.18,245.75 C171.58,247.26 174.22,251.35 176.05,254.83 C178.61,259.73 179.07,261.34 178.06,261.96 C177.06,262.58 177.19,263.01 178.63,263.85 C178.80,263.95 178.97,264.05 179.12,264.13 C177.79,263.55 175.83,262.58 172.87,261.11 C142.01,245.74 120.35,218.86 111.16,184.50 C109.89,179.74 108.56,174.40 107.47,169.73 C107.51,169.79 107.55,169.81 107.59,169.80 C107.64,169.93 107.68,170.00 107.71,170.00 C107.87,170.00 107.90,167.67 107.78,164.73 C107.77,164.58 107.77,164.44 107.76,164.29 ZM 240.52 165.94 C239.33,168.19 238.20,170.30 237.41,171.72 C234.68,176.61 234.33,177.41 222.90,179.56 C227.24,178.41 227.30,177.66 220.50,178.41 C217.20,178.77 212.85,179.33 210.83,179.65 L 207.16 180.23 L 206.49 175.76 C205.74,170.79 207.49,157.20 209.50,152.36 L 210.80 149.23 L 218.65 149.52 C222.97,149.68 229.29,150.49 232.71,151.31 C238.03,152.59 239.08,152.60 240.08,151.40 C240.72,150.63 241.60,150.00 242.03,150.00 C242.85,150.00 242.02,153.70 238.52,165.75 C238.15,167.02 238.30,168.00 238.87,168.00 C239.11,168.00 239.72,167.22 240.52,165.94 ZM 91.43 262.89 C91.05,262.28 88.33,260.71 85.37,259.40 C82.42,258.09 80.00,256.42 80.00,255.67 C80.00,254.93 81.81,253.72 84.01,253.00 C88.81,251.41 96.00,245.52 96.00,243.17 C95.99,242.11 95.31,242.62 94.11,244.58 C93.35,245.84 92.30,246.93 90.73,248.02 C93.14,246.23 94.48,244.01 96.61,239.77 C98.53,235.97 100.53,233.01 101.07,233.19 C101.61,233.37 103.50,236.44 105.27,240.01 C109.03,247.56 112.94,250.60 123.95,254.04 C123.39,254.20 123.11,254.96 122.56,256.75 C122.18,257.98 122.24,258.69 122.63,258.87 C122.16,259.06 121.68,259.21 121.20,259.31 C119.71,259.61 116.42,260.75 113.87,261.84 C109.66,263.65 108.91,264.52 105.64,271.41 C103.66,275.59 101.55,279.00 100.96,279.00 C100.36,279.00 98.60,276.19 97.04,272.75 C94.62,267.41 93.29,265.22 89.71,263.17 C90.51,263.48 91.23,263.73 91.81,263.91 C91.98,263.96 91.81,263.50 91.43,262.89 ZM 413.07 254.10 C415.30,249.12 413.65,248.56 411.30,253.50 C410.38,255.43 409.07,257.00 408.39,257.00 C407.71,257.00 406.10,255.09 404.82,252.75 C403.32,249.99 401.10,247.79 398.50,246.47 C391.91,243.13 391.76,242.99 393.06,241.42 C393.78,240.56 393.81,240.30 392.75,240.58 C392.87,240.55 392.98,240.51 393.09,240.47 C398.31,238.74 405.37,233.47 404.49,231.98 C404.59,231.99 404.70,232.00 404.84,232.00 C405.30,232.00 406.19,230.88 406.82,229.50 C407.44,228.12 408.42,227.00 408.98,227.00 C409.51,227.00 409.94,226.41 409.99,225.65 C410.00,225.70 410.00,225.76 410.00,225.81 C410.00,231.76 416.71,239.27 423.27,240.67 C427.88,241.65 427.42,242.92 421.46,245.65 C416.43,247.95 415.49,248.86 413.36,253.53 C411.56,257.46 410.39,259.60 409.32,260.08 C409.43,259.99 409.55,259.88 409.68,259.75 C410.53,258.89 412.06,256.35 413.07,254.10 ZM 148.50 296.99 C147.64,295.34 145.05,292.80 142.74,291.34 C138.85,288.88 138.69,288.61 140.52,287.59 C141.61,286.99 144.39,284.55 146.69,282.17 L 150.88 277.85 L 153.12 281.26 C154.35,283.13 156.62,285.39 158.18,286.29 C161.65,288.28 161.76,289.76 158.54,290.99 C157.18,291.50 154.93,293.74 153.52,295.96 C152.12,298.18 150.77,300.00 150.51,300.00 C150.26,300.00 149.35,298.65 148.50,296.99 ZM 158.02 142.99 C158.22,152.05 159.63,166.81 161.07,177.14 C159.44,166.61 158.17,152.97 158.02,142.99 ZM 224.00 210.50 C223.92,209.75 223.77,209.05 223.56,208.37 C222.80,205.97 221.16,203.86 218.23,200.79 C223.54,206.28 223.97,207.40 224.00,210.50 ZM 75.50 255.97 C75.59,256.40 78.32,257.93 81.62,259.56 C78.15,258.07 75.50,256.55 75.50,256.00 C75.50,255.99 75.50,255.98 75.50,255.97 ZM 256.98 160.23 C252.28,151.09 250.47,149.13 248.84,150.76 C248.70,150.90 248.48,151.20 248.21,151.63 C248.63,150.96 248.94,150.54 249.10,150.44 C250.81,149.38 252.98,152.07 256.98,160.23 ZM 178.01 254.92 C179.29,257.18 180.53,259.25 181.22,260.24 C182.27,261.75 182.84,263.43 182.51,263.99 C182.84,263.43 182.25,261.75 181.19,260.24 C180.44,259.17 179.19,257.07 178.01,254.92 ZM 105.00 157.39 C105.05,158.35 105.58,161.20 106.15,163.94 C105.44,160.68 105.00,158.32 105.00,157.64 C105.00,157.56 105.00,157.47 105.00,157.39 ZM 408.84 224.01 C408.37,224.12 407.79,224.52 407.21,225.17 C407.76,224.47 408.30,224.00 408.69,224.00 C408.74,224.00 408.79,224.00 408.84,224.01 ZM 172.73 246.15 C173.38,246.88 173.99,247.74 174.64,248.80 C174.01,247.82 173.36,246.93 172.73,246.15 ZM 109.06 154.05 C112.24,153.50 117.85,153.33 127.65,153.19 C117.89,153.33 112.26,153.51 109.06,154.05 ZM 84.98 251.06 C83.81,251.57 82.50,252.11 81.02,252.68 C81.34,252.55 81.67,252.41 82.00,252.28 C83.10,251.84 84.09,251.44 84.98,251.06 ZM 125.48 257.02 C125.81,256.66 126.07,256.37 126.27,256.12 C126.05,256.48 125.70,256.87 125.26,257.26 C125.33,257.18 125.41,257.10 125.48,257.02 ZM 182.50 263.99 C182.30,264.32 182.14,264.56 181.90,264.70 C182.11,264.55 182.31,264.31 182.50,263.99 ZM 202.95 183.34 C202.42,183.47 202.11,183.57 202.05,183.63 C202.04,183.63 202.04,183.64 202.04,183.65 C202.04,183.64 202.04,183.63 202.05,183.62 C202.11,183.56 202.42,183.47 202.95,183.34 ZM 272.79 304.49 C272.77,304.45 272.74,304.42 272.72,304.39 C272.73,304.40 272.74,304.40 272.74,304.41 C272.76,304.43 272.77,304.45 272.79,304.49 ZM 388.08 242.47 C388.03,242.51 388.01,242.54 388.00,242.57 C388.00,242.54 388.03,242.51 388.08,242.47 Z" fill="rgb(252,222,10)"/>
</g>
</svg>