<svg xmlns="http://www.w3.org/2000/svg" width="493" height="493" viewBox="0 0 493 493">
<g>
<path d="M 196.06 320.97 C193.41,322.39 188.46,322.27 187.25,320.75 C186.70,320.06 183.92,313.20 181.07,305.50 C173.23,284.35 173.14,284.19 163.63,274.52 C152.05,262.75 145.19,253.57 139.68,242.50 C130.53,224.11 127.58,211.33 127.66,190.50 C127.76,165.71 135.34,143.35 150.63,122.83 C166.36,101.70 191.04,85.07 216.37,78.54 C228.57,75.39 247.99,74.20 259.00,75.91 C277.59,78.81 298.88,86.08 308.12,92.69 C310.66,94.51 313.16,96.00 313.67,96.00 C315.04,96.00 327.40,106.38 333.93,113.01 C356.05,135.47 369.27,174.09 365.11,204.09 C361.07,233.28 351.40,252.62 330.55,273.29 C325.44,278.36 320.71,283.56 320.04,284.85 C319.37,286.14 317.11,292.21 315.00,298.35 C309.69,313.85 307.04,320.36 305.67,321.23 C303.83,322.39 299.55,322.13 297.63,320.72 C295.99,319.52 296.06,318.96 298.83,311.47 C300.44,307.09 303.19,299.23 304.94,294.00 C309.25,281.12 311.74,277.19 323.20,265.25 C338.65,249.15 347.44,234.28 352.11,216.33 C355.35,203.86 355.39,179.64 352.21,166.75 C347.49,147.72 338.63,132.30 323.72,117.19 C303.76,96.96 275.12,85.00 246.65,85.00 C231.92,85.00 210.79,90.03 197.69,96.66 C183.30,103.94 164.54,121.26 154.54,136.50 C142.30,155.14 136.27,180.71 138.99,202.48 C142.07,227.12 151.21,246.02 168.99,264.50 C180.54,276.50 183.60,281.17 188.00,293.50 C192.55,306.24 194.92,312.64 196.43,316.22 C197.91,319.73 197.89,319.99 196.06,320.97 ZM 269.84 221.19 L 267.46 225.50 L 247.37 225.77 C232.06,225.98 227.04,225.74 226.26,224.77 C224.27,222.30 220.25,213.41 218.22,207.00 C213.75,192.88 213.06,183.55 215.50,170.50 C217.80,158.21 218.11,157.15 219.77,155.78 C221.94,153.98 267.17,154.07 269.35,155.88 C270.18,156.56 271.67,156.98 272.66,156.81 C276.45,156.16 280.64,175.56 279.61,188.96 C278.92,197.93 274.34,213.03 269.84,221.19 ZM 301.50 333.50 L 301.50 344.50 L 246.93 344.76 C216.91,344.90 192.05,344.71 191.68,344.34 C190.77,343.44 190.84,335.79 191.77,334.39 C192.25,333.66 200.63,333.03 215.98,332.55 C228.90,332.15 239.81,331.61 240.23,331.35 C240.66,331.09 241.00,314.51 241.00,294.50 C241.00,268.83 241.33,257.92 242.11,257.43 C244.02,256.25 252.02,256.23 252.77,257.39 C253.16,258.00 253.37,272.67 253.23,290.00 C253.09,307.33 253.32,323.98 253.74,327.00 L 254.50 332.50 ZM 284.40 316.75 C281.33,319.42 279.83,320.00 275.99,320.00 C271.98,320.00 270.78,319.49 267.66,316.46 C261.49,310.46 261.46,303.43 267.60,298.04 L 271.14 294.94 L 272.29 273.28 L 294.14 251.45 L 316.00 229.62 L 316.00 183.33 L 312.00 179.12 C308.55,175.49 308.00,174.30 308.00,170.42 C308.00,162.67 312.91,158.00 321.07,158.00 C324.56,158.00 325.85,158.62 329.05,161.82 C335.56,168.32 335.55,173.14 329.02,179.86 L 325.00 184.00 L 325.00 233.68 L 303.00 255.73 L 281.00 277.78 L 281.00 286.72 C281.00,295.19 281.13,295.73 283.45,296.98 C287.01,298.88 289.34,304.41 288.68,309.39 C288.27,312.53 287.26,314.27 284.40,316.75 ZM 224.42 320.45 C223.88,322.61 223.22,323.00 220.06,323.00 C218.01,323.00 216.03,322.70 215.67,322.33 C215.30,321.97 215.00,312.16 215.00,300.55 L 215.00 279.43 L 192.00 256.48 L 169.00 233.53 L 169.00 183.90 L 165.61 180.70 C161.45,176.77 160.00,174.04 160.00,170.11 C160.00,165.72 161.64,162.80 165.53,160.25 C172.68,155.57 182.14,158.67 184.91,166.60 C186.70,171.75 185.85,175.06 181.47,179.90 L 178.00 183.74 L 178.00 229.50 L 224.87 276.50 L 224.97 297.20 C225.02,308.59 224.77,319.05 224.42,320.45 ZM 261.24 401.47 C256.24,403.49 253.32,403.99 246.74,403.95 C232.35,403.86 221.29,398.29 213.14,387.03 C209.68,382.26 208.97,377.35 211.67,376.82 C212.58,376.65 229.01,376.62 248.17,376.78 L 283.00 377.05 L 283.00 380.38 C283.00,387.21 273.33,396.58 261.24,401.47 ZM 293.82 362.60 L 293.50 366.50 L 199.90 367.02 L 200.50 354.50 L 292.96 353.98 L 293.55 356.34 C293.87,357.63 294.00,360.45 293.82,362.60 ZM 269.92 145.07 C268.46,146.00 227.48,146.24 225.25,145.34 C223.03,144.44 223.91,139.96 227.75,132.65 C231.16,126.17 240.76,114.02 243.17,113.14 C243.71,112.94 244.82,113.73 245.64,114.89 C246.45,116.05 247.49,117.00 247.95,117.00 C249.43,117.00 250.07,113.79 248.87,112.35 C247.24,110.38 248.32,109.73 251.12,111.01 C254.09,112.37 261.55,123.72 267.11,135.34 C270.58,142.59 271.08,144.34 269.92,145.07 ZM 201.52 234.31 C197.46,237.05 195.86,237.52 194.67,236.33 C194.30,235.97 194.00,228.46 194.00,219.66 L 194.00 203.66 L 198.58 199.27 C204.17,193.91 206.19,194.03 207.17,199.75 C207.57,202.08 209.53,208.08 211.53,213.08 L 215.17 222.18 L 212.84 224.84 C211.55,226.30 209.96,227.84 209.30,228.27 C208.64,228.70 207.51,229.62 206.80,230.33 C206.08,231.03 203.71,232.82 201.52,234.31 ZM 299.82 219.88 C300.11,235.93 300.02,237.00 298.30,237.00 C295.84,237.00 290.30,233.14 284.14,227.13 C279.49,222.60 279.16,221.98 280.04,219.35 C286.83,199.10 288.42,195.00 289.49,195.00 C290.18,195.00 292.71,196.75 295.12,198.88 L 299.50 202.77 ZM 243.50 194.31 C246.56,195.15 251.94,194.27 254.65,192.50 C255.98,191.62 257.82,189.34 258.73,187.43 C260.17,184.41 260.22,183.48 259.05,180.23 C256.47,173.06 249.30,169.58 242.80,172.33 C231.78,176.99 232.24,191.24 243.50,194.31 ZM 262.50 235.50 L 262.50 247.50 L 247.44 247.78 C239.16,247.93 232.07,247.74 231.69,247.36 C230.84,246.51 230.81,240.32 231.64,237.22 C232.24,234.97 232.38,234.95 247.37,235.22 ZM 317.20 173.80 C317.86,174.46 319.35,175.00 320.50,175.00 C323.18,175.00 325.00,173.18 325.00,170.50 C325.00,167.82 323.18,166.00 320.50,166.00 C316.51,166.00 314.39,170.99 317.20,173.80 ZM 169.57 173.43 C171.88,175.73 174.73,175.35 176.61,172.47 C178.16,170.11 178.15,169.82 176.48,167.97 C174.27,165.53 171.15,165.43 169.39,167.75 C167.63,170.07 167.67,171.53 169.57,173.43 ZM 273.20 310.80 C275.09,312.69 278.82,312.21 280.04,309.93 C281.39,307.39 278.95,303.00 276.18,303.00 C272.48,303.00 270.52,308.12 273.20,310.80 Z" fill="rgb(250,224,26)"/>
</g>
</svg>